# xmcd CD database file
#
# Track frame offsets:
#	150
#	12905
#	23670
#	41064
#
# Disc length: 644 seconds
#
# Revision: 1
# Processed by: cddbd v1.5.2PL0 Copyright (c) Steve Scherf et al.
# Submitted via: CDex 1.50
#
DISCID=25028204
DTITLE=Кино - Запись в МДТ
DYEAR=1983
DGENRE=Rock
TTITLE0=Последний герой
TTITLE1=Весна
TTITLE2=Тот, кто уходит прочь
TTITLE3=Лето
EXTD=YEAR: 1983
EXTT0=
EXTT1=
EXTT2=
EXTT3=
PLAYORDER=
